<svg width="120" height="120" viewBox="0 0 120 120" fill="none" xmlns="http://www.w3.org/2000/svg">
<g filter="url(#filter0_d_234_125)">
<rect x="9" y="6" width="100" height="100" rx="50" fill="white"/>
</g>
<path d="M78.25 38.5H67.75V35.875C67.75 34.7147 67.2891 33.6019 66.4686 32.7814C65.6481 31.9609 64.5353 31.5 63.375 31.5H54.625C53.4647 31.5 52.3519 31.9609 51.5314 32.7814C50.7109 33.6019 50.25 34.7147 50.25 35.875V38.5H39.75C39.2859 38.5 38.8408 38.6844 38.5126 39.0126C38.1844 39.3408 38 39.7859 38 40.25C38 40.7141 38.1844 41.1592 38.5126 41.4874C38.8408 41.8156 39.2859 42 39.75 42H41.6094L43.6875 75.3506C43.8428 78.2873 46.0938 80.5 48.9375 80.5H69.0625C71.9205 80.5 74.1266 78.3366 74.3125 75.3594L76.3906 42H78.25C78.7141 42 79.1592 41.8156 79.4874 41.4874C79.8156 41.1592 80 40.7141 80 40.25C80 39.7859 79.8156 39.3408 79.4874 39.0126C79.1592 38.6844 78.7141 38.5 78.25 38.5ZM52.0623 73.5H52C51.5465 73.5003 51.1105 73.3245 50.7841 73.0097C50.4576 72.6948 50.2662 72.2656 50.25 71.8123L49.375 47.3123C49.3585 46.8482 49.527 46.3965 49.8435 46.0566C50.16 45.7168 50.5985 45.5165 51.0627 45.5C51.5268 45.4835 51.9785 45.652 52.3184 45.9685C52.6582 46.285 52.8585 46.7235 52.875 47.1877L53.75 71.6877C53.7583 71.9175 53.7213 72.1467 53.641 72.3623C53.5606 72.5778 53.4386 72.7753 53.2819 72.9437C53.1251 73.112 52.9367 73.2478 52.7275 73.3432C52.5182 73.4387 52.2922 73.492 52.0623 73.5ZM60.75 71.75C60.75 72.2141 60.5656 72.6592 60.2374 72.9874C59.9093 73.3156 59.4641 73.5 59 73.5C58.5359 73.5 58.0908 73.3156 57.7626 72.9874C57.4344 72.6592 57.25 72.2141 57.25 71.75V47.25C57.25 46.7859 57.4344 46.3408 57.7626 46.0126C58.0908 45.6844 58.5359 45.5 59 45.5C59.4641 45.5 59.9093 45.6844 60.2374 46.0126C60.5656 46.3408 60.75 46.7859 60.75 47.25V71.75ZM64.25 38.5H53.75V35.875C53.7487 35.7597 53.7704 35.6454 53.8139 35.5386C53.8574 35.4318 53.9218 35.3349 54.0033 35.2533C54.0849 35.1718 54.1818 35.1074 54.2886 35.0639C54.3954 35.0204 54.5097 34.9987 54.625 35H63.375C63.4903 34.9987 63.6046 35.0204 63.7114 35.0639C63.8182 35.1074 63.9151 35.1718 63.9967 35.2533C64.0782 35.3349 64.1426 35.4318 64.1861 35.5386C64.2296 35.6454 64.2513 35.7597 64.25 35.875V38.5ZM67.75 71.8123C67.7338 72.2656 67.5424 72.6948 67.2159 73.0097C66.8895 73.3245 66.4535 73.5003 66 73.5H65.9366C65.7068 73.4918 65.4809 73.4384 65.2718 73.3429C65.0626 73.2474 64.8744 73.1116 64.7178 72.9433C64.5611 72.775 64.4392 72.5775 64.3589 72.362C64.2787 72.1466 64.2417 71.9174 64.25 71.6877L65.125 47.1877C65.1332 46.9578 65.1866 46.7319 65.2821 46.5227C65.3776 46.3135 65.5134 46.1252 65.6816 45.9685C65.8499 45.8118 66.0475 45.6897 66.2629 45.6094C66.4784 45.529 66.7075 45.4918 66.9373 45.5C67.1672 45.5082 67.3931 45.5616 67.6023 45.6571C67.8115 45.7526 67.9998 45.8884 68.1565 46.0566C68.3132 46.2249 68.4353 46.4224 68.5156 46.6379C68.596 46.8534 68.6332 47.0825 68.625 47.3123L67.75 71.8123Z" fill="#FF006B"/>
<defs>
<filter id="filter0_d_234_125" x="0" y="0" width="120" height="120" filterUnits="userSpaceOnUse" color-interpolation-filters="sRGB">
<feFlood flood-opacity="0" result="BackgroundImageFix"/>
<feColorMatrix in="SourceAlpha" type="matrix" values="0 0 0 0 0 0 0 0 0 0 0 0 0 0 0 0 0 0 127 0" result="hardAlpha"/>
<feOffset dx="1" dy="4"/>
<feGaussianBlur stdDeviation="5"/>
<feComposite in2="hardAlpha" operator="out"/>
<feColorMatrix type="matrix" values="0 0 0 0 0 0 0 0 0 0 0 0 0 0 0 0 0 0 0.25 0"/>
<feBlend mode="normal" in2="BackgroundImageFix" result="effect1_dropShadow_234_125"/>
<feBlend mode="normal" in="SourceGraphic" in2="effect1_dropShadow_234_125" result="shape"/>
</filter>
</defs>
</svg>
