<svg width="50" height="50" viewBox="0 0 50 50" fill="none" xmlns="http://www.w3.org/2000/svg">
<path d="M10.937 42.7082H39.0578C39.4563 42.7047 39.8411 42.8536 40.1334 43.1245C40.4258 43.3953 40.6036 43.7676 40.6304 44.1653C40.6573 44.5629 40.5312 44.9557 40.278 45.2634C40.0248 45.5712 39.6636 45.7705 39.2683 45.8207L39.0578 45.8332H10.937C10.5411 45.8331 10.1601 45.6827 9.87079 45.4124C9.58152 45.1422 9.40562 44.7722 9.37864 44.3772C9.35165 43.9822 9.4756 43.5918 9.72542 43.2847C9.97525 42.9776 10.3323 42.7767 10.7245 42.7228L10.937 42.7082H39.0578H10.937ZM24.7558 4.17279L24.9995 4.1582C25.5098 4.15827 26.0023 4.34561 26.3836 4.68469C26.765 5.02377 27.0086 5.49101 27.0683 5.99779L27.0829 6.24154V32.4707L33.9454 25.6103C34.3041 25.2516 34.7814 25.0361 35.2877 25.0043C35.794 24.9724 36.2945 25.1264 36.6954 25.4374L36.8912 25.6103C37.2499 25.969 37.4654 26.4463 37.4972 26.9526C37.529 27.4589 37.375 27.9594 37.0641 28.3603L36.8912 28.5582L26.4808 38.9665C26.1223 39.3255 25.6451 39.5414 25.1388 39.5736C24.6325 39.6059 24.1319 39.4522 23.7308 39.1415L23.5349 38.9686L13.1099 28.5582C12.7323 28.1842 12.512 27.6799 12.4939 27.1487C12.4759 26.6175 12.6616 26.0995 13.013 25.7007C13.3644 25.302 13.8549 25.0526 14.3842 25.0036C14.9134 24.9546 15.4414 25.1098 15.8599 25.4374L16.0558 25.6103L22.9162 32.4582V6.24154C22.9163 5.73126 23.1036 5.23875 23.4427 4.85743C23.7818 4.4761 24.249 4.23249 24.7558 4.17279L24.9995 4.1582L24.7558 4.17279Z" fill="#FF006B"/>
</svg>
